<svg width="65" height="64" viewBox="0 0 65 64" fill="none" xmlns="http://www.w3.org/2000/svg">
<path d="M9.82639 24C8.17839 24 6.89839 22.512 7.18906 20.8907C8.14639 15.5547 10.8051 10.5947 14.8024 6.848C19.9624 2.008 26.7011 -0.405329 33.8051 0.0560047C47.1944 0.920005 57.6531 12.576 57.4557 26.5013C57.3491 34.016 51.0851 40.0027 43.5677 40.0027H35.7491C34.7891 40.9253 33.4931 41.4987 32.0584 41.4987C29.1117 41.4987 26.7251 39.112 26.7251 36.1653C26.7251 33.2187 29.1117 30.832 32.0584 30.832C34.4797 30.832 36.5011 32.456 37.1517 34.6693H43.5677C48.1971 34.6693 52.0717 30.9813 52.1224 26.3547C52.2451 15.2987 44.0024 6.064 33.4611 5.38134C27.8637 5.03467 22.5251 6.92267 18.4477 10.744C15.2237 13.7653 13.1464 17.6347 12.4184 21.8853C12.2051 23.128 11.0851 24.0053 9.82639 24.0053V24ZM32.1251 45.3333C22.2717 45.3333 13.7464 51.4453 10.9117 60.5387C10.6584 61.3493 10.8051 62.232 11.3091 62.9147C11.8131 63.5973 12.6104 64 13.4584 64H50.7917C51.6397 64 52.4371 63.5973 52.9411 62.9147C53.4451 62.232 53.5917 61.3493 53.3384 60.5387C50.5037 51.4453 41.9784 45.3333 32.1251 45.3333ZM39.9491 29.3333H46.2264C46.5864 28.0613 46.7917 26.7227 46.7917 25.3333C46.7917 17.232 40.2264 10.6667 32.1251 10.6667C24.0237 10.6667 17.4584 17.232 17.4584 25.3333C17.4584 29.3093 19.0477 32.9093 21.6157 35.552C21.9384 30.0427 26.4664 25.6613 32.0584 25.6613C35.2344 25.6613 38.0344 27.104 39.9517 29.3333H39.9491Z" fill="#F9A94A"/>
</svg>
