<svg width="65" height="64" viewBox="0 0 65 64" fill="none" xmlns="http://www.w3.org/2000/svg">
<path d="M56.375 32C56.375 28.6083 54.6551 25.6185 52.0394 23.8547C52.6413 20.7589 51.7434 17.4292 49.3456 15.0294C46.9478 12.6316 43.6181 11.7337 40.5203 12.3356C38.7565 9.71986 35.7667 8 32.375 8C28.9833 8 25.9935 9.71986 24.2297 12.3356C21.1339 11.7337 17.8022 12.6316 15.4044 15.0294C13.0066 17.4272 12.1087 20.7569 12.7106 23.8547C10.0949 25.6185 8.375 28.6083 8.375 32C8.375 35.3917 10.0949 38.3815 12.7106 40.1453C12.1087 43.2411 13.0066 46.5728 15.4044 48.9706C17.8022 51.3684 21.1319 52.2663 24.2297 51.6644C25.9935 54.2801 28.9833 56 32.375 56C35.7667 56 38.7565 54.2801 40.5203 51.6644C43.6161 52.2663 46.9478 51.3684 49.3456 48.9706C51.7434 46.5728 52.6413 43.2431 52.0394 40.1453C54.6551 38.3815 56.375 35.3917 56.375 32ZM24.3777 26.0005C24.3777 24.8966 25.2736 24.0007 26.3775 24.0007C27.4814 24.0007 28.3773 24.8966 28.3773 26.0005C28.3773 27.1044 27.4814 28.0003 26.3775 28.0003C25.2736 28.0003 24.3777 27.1044 24.3777 26.0005ZM29.9092 39.9993H25.2456L34.8448 24.0007H39.5084L29.9092 39.9993ZM38.3765 39.9993C37.2726 39.9993 36.3767 39.1034 36.3767 37.9995C36.3767 36.8956 37.2726 35.9997 38.3765 35.9997C39.4804 35.9997 40.3763 36.8956 40.3763 37.9995C40.3763 39.1034 39.4804 39.9993 38.3765 39.9993Z" fill="#0A3542"/>
</svg>
