<svg width="65" height="64" viewBox="0 0 65 64" fill="none" xmlns="http://www.w3.org/2000/svg">
<path d="M28.4307 12.3636H6.2085V8H28.4307V12.3636ZM23.9863 16.7273H6.2085V21.0909H23.9863V16.7273ZM19.5418 25.4545H6.2085V29.8182H19.5418V25.4545ZM32.8752 8V16.7273H28.4307V25.4545H23.9863V34.1818H6.2085V45.0909H39.5418V14.5455C39.5418 10.9367 36.5507 8 32.8752 8ZM49.5418 56C52.6107 56 55.0974 53.5585 55.0974 50.5455C55.0974 50.1702 55.0441 49.808 54.9685 49.4545H44.1129C44.0374 49.808 43.9841 50.1702 43.9841 50.5455C43.9841 53.5585 46.4729 56 49.5418 56ZM18.4285 56C21.4974 56 23.9841 53.5585 23.9841 50.5455C23.9841 50.1702 23.9307 49.808 23.8552 49.4545H13.0041C12.9285 49.808 12.8752 50.1702 12.8752 50.5455C12.8752 53.5585 15.3596 56 18.4285 56ZM43.9863 45.0909H59.5418V34.1818H43.9863V45.0909ZM48.4307 16.7273H43.9863V29.8182H59.5418V27.6364C59.5418 21.6211 54.5574 16.7273 48.4307 16.7273Z" fill="#0A3542"/>
</svg>
