<svg width="65" height="64" viewBox="0 0 65 64" fill="none" xmlns="http://www.w3.org/2000/svg">
<path d="M53.101 31.9997C52.341 29.0497 50.769 26.4337 48.625 24.4017V13.9995C48.625 13.9995 43.237 14.0015 40.565 18.0576C40.271 21.7176 38.477 25.0237 35.605 27.2377L35.657 35.9998H19.625V27.2197C18.333 26.2277 17.287 25.0097 16.473 23.6556C15.649 24.3357 14.885 25.0857 14.209 25.9157C13.313 25.7177 12.625 24.9557 12.625 23.9997C12.625 22.8976 13.523 21.9996 14.625 21.9996V17.9996C11.317 17.9996 8.625 20.6916 8.625 23.9997C8.625 26.3877 10.037 28.4357 12.061 29.4017C11.147 31.4157 10.625 33.6438 10.625 35.9998C10.625 41.9178 13.847 47.0739 18.625 49.8419V56H28.625V52H36.625V56H46.625V49.2259C49.219 47.4579 51.257 44.9459 52.451 41.9998H56.625V31.9997H53.101ZM43.625 35.9998C41.969 35.9998 40.625 34.6558 40.625 32.9998C40.625 31.3437 41.969 29.9997 43.625 29.9997C45.281 29.9997 46.625 31.3437 46.625 32.9998C46.625 34.6558 45.281 35.9998 43.625 35.9998ZM18.795 15.2376C19.449 11.8295 22.147 9.01949 25.505 8.24348C28.249 7.60747 31.059 8.23148 33.221 9.9515C35.383 11.6715 36.623 14.2395 36.623 16.9996C36.623 19.7836 35.341 22.3196 33.211 23.9997H22.045C19.437 21.9616 18.141 18.6476 18.795 15.2376ZM31.609 27.9997L31.625 31.9997H23.625V27.9997H31.609Z" fill="#0A3542"/>
</svg>
